<svg width="32" height="32" viewBox="0 0 32 32" fill="none" xmlns="http://www.w3.org/2000/svg">
  <defs>
    <linearGradient id="bgGradient" x1="0%" y1="0%" x2="100%" y2="100%">
      <stop offset="0%" style="stop-color:hsl(221, 83%, 53%);stop-opacity:1" />
      <stop offset="100%" style="stop-color:hsl(174, 72%, 56%);stop-opacity:1" />
    </linearGradient>
    <linearGradient id="iconGradient" x1="0%" y1="0%" x2="100%" y2="100%">
      <stop offset="0%" style="stop-color:hsl(0, 0%, 100%);stop-opacity:1" />
      <stop offset="100%" style="stop-color:hsl(220, 14%, 96%);stop-opacity:1" />
    </linearGradient>
    <linearGradient id="accentGradient" x1="0%" y1="0%" x2="100%" y2="100%">
      <stop offset="0%" style="stop-color:hsl(37, 92%, 50%);stop-opacity:1" />
      <stop offset="100%" style="stop-color:hsl(37, 92%, 58%);stop-opacity:1" />
    </linearGradient>
    <radialGradient id="glowGradient" cx="50%" cy="50%" r="50%">
      <stop offset="0%" style="stop-color:hsl(174, 72%, 56%);stop-opacity:0.6" />
      <stop offset="100%" style="stop-color:hsl(174, 72%, 56%);stop-opacity:0" />
    </radialGradient>
    <filter id="glow">
      <feGaussianBlur stdDeviation="1" result="coloredBlur"/>
      <feMerge> 
        <feMergeNode in="coloredBlur"/>
        <feMergeNode in="SourceGraphic"/>
      </feMerge>
    </filter>
  </defs>

  <rect width="32" height="32" rx="8" fill="url(#bgGradient)"/>
  <rect width="28" height="28" x="2" y="2" rx="6" fill="none" stroke="hsl(221, 83%, 63%)" stroke-width="1.5" opacity="0.35"/>
  <circle cx="16" cy="16" r="12" fill="url(#glowGradient)" opacity="0.3"/>

  <g fill="none" stroke="url(#iconGradient)" stroke-width="2" filter="url(#glow)">
    <rect x="8" y="6" width="16" height="20" rx="2" stroke-width="2"/>
    <rect x="14" y="6" width="4" height="20" fill="url(#accentGradient)" opacity="0.9"/>
    <line x1="12" y1="10" x2="20" y2="10" stroke-width="1.5" opacity="0.9"/>
    <line x1="12" y1="13" x2="19" y2="13" stroke-width="1.5" opacity="0.8"/>
    <line x1="12" y1="16" x2="18" y2="16" stroke-width="1.5" opacity="0.7"/>
    <line x1="12" y1="19" x2="17" y2="19" stroke-width="1.5" opacity="0.6"/>
    <circle cx="15" cy="11.5" r="0.5" fill="url(#iconGradient)" opacity="0.7"/>
    <circle cx="15" cy="14.5" r="0.5" fill="url(#iconGradient)" opacity="0.6"/>
    <circle cx="15" cy="17.5" r="0.5" fill="url(#iconGradient)" opacity="0.5"/>
  </g>

  <g filter="url(#glow)">
    <path d="M22 8 L26 4 L28 6 L24 10 Z" fill="url(#iconGradient)"/>
    <path d="M22 8 L24 10 L22 12 L20 10 Z" fill="url(#iconGradient)"/>
    <path d="M20 10 L18 12 L20 14 L22 12 Z" fill="url(#accentGradient)" opacity="0.95"/>
    <circle cx="27" cy="5" r="1.5" fill="url(#accentGradient)" opacity="0.95"/>
    <line x1="23" y1="9" x2="23" y2="11" stroke="url(#accentGradient)" stroke-width="0.5" opacity="0.7"/>
  </g>

  <g opacity="0.9">
    <circle cx="26" cy="6" r="1.5" fill="url(#accentGradient)"/>
    <circle cx="6" cy="26" r="1" fill="url(#accentGradient)"/>
    <circle cx="16" cy="4" r="0.8" fill="url(#accentGradient)"/>
    <path d="M28 8 L29 7 L28 6 L27 7 Z" fill="url(#accentGradient)" opacity="0.95"/>
    <path d="M4 8 L5 7 L4 6 L3 7 Z" fill="url(#accentGradient)" opacity="0.85"/>
  </g>

  <ellipse cx="16" cy="30" rx="12" ry="2" fill="hsl(221, 83%, 25%)" opacity="0.18"/>
</svg>
